<?xml version="1.0" encoding="utf-8"?>
<!-- Generator: Adobe Illustrator 24.0.2, SVG Export Plug-In . SVG Version: 6.00 Build 0)  -->
<svg version="1.1" id="Calque_1" xmlns:amcharts="http://amcharts.com/ammap"
	 xmlns="http://www.w3.org/2000/svg" xmlns:xlink="http://www.w3.org/1999/xlink" x="0px" y="0px" viewBox="0 0 1366 768"
	 style="enable-background:new 0 0 1366 768;" xml:space="preserve">
<g>
	<path id="BF-01" class="st0" d="M471.2,209.1l12.8,0.3l6.2,8.5l5.4-5.3l6.3,5l3-1.2l0,0l9.3,10.6l16.9,4.1l2.4,5.2l5.2,1.1
		l6.6,20.8l8.2,4.3l5.8-1.3l4.6,2.9L549,284l-15.8,0.3l0.7,16.8l-3.3,15l9,10.1l0,0l-14,15.3l4.3,13.2l-14,16l1.7,4.3l-5.7,6.4
		l8.7,22.7l-3.9,3.7l-10.2-0.6l-1.3,2.6l7.7,7.6l-0.6,5.7l3.4,7l-1.2,6.5l-7.6,2.6l-1.2,2.7l1.8,2.5l13.1,1.2l13.8,17.4l1.8,11.9
		l17.5,13.8l-3.3,3.7l-6.2,1l-0.9,4.1l-14.9-1.8l-10.4,14.8l0,0l-6.9-3.5l2.7-4.8l0,0l4.8-11.6l-1.8-10.1l1.8-5.1l-3.8-2.8l-3.3-1.9
		l-2.4,2.9l-4-2.7l-5.7,1.3l-8.2-5.2l-15,7.7l-4.8,5.1l-3.8-1.9l-2.9,4.6l-4.9-4.9l0-6.5l-14-5.9l3.7-10l-23.5-9.9l-12.3,1.5
		l-4.5,3.1l-6.3-0.9l-11.7-6.2l0.7-3.3l-4.9-4.8l-5.4-0.7l0.3-7.6l-3.6-2.5l-2,1.4l-9-3.5l-5.6,2.8l-9.4-0.5l-4.5,4.2l-9,20.1
		L334,449l-1.8-2.4l-12.8,2.7l-1.6-3.5l7.7-29.4l-4.6-0.3l0.1-9l-3.4-1.7l-5.6,3.3l-8,0.9l-4.3-2.2l0,0l2.3-5.6l6.7-2.5l-2.6-6.7
		l10.5-9.4l2.3-6.7l7.6,1l-3.8-12.2l7.1-14.2l-4.1-8.5l-7.1-6l-0.2-7.2l14.3-2.5l9,3.9l7.3-6.8l0.2-23.7l-14.5-20.3l0.3-3l7.6-4.8
		l4.9-0.2l-1.4-5.7l13.3-8.4l5.3-10.7l12.4-6.6l3.2-7.5l6.7,6.9l-7.1,4.5l1.7,3l19.5,3l23.6,19.1l8.1,3.7l11.8,1.1l0.2-12.3
		l22.4-3.2l-4.5-29.8l3.1-16.6l-3.4-4.5l2.8-1.5L471.2,209.1z"/>
	<path id="BF-02" class="st0" d="M198.1,530.9l12.2,1l26.1,28.5l17.4-4.6l9-6.1l17.4,0.9l7.5,10.4l8.9,3.3l15.3-11.6l8.3,0l3.3,2.2
		l6.1,12.5l11.8,2.4l3,3.6l21.1-10.1l6.7,6.2l14.1,5.4l9.2-4.7l-0.8-2.7l8.5-9.7l6.3-0.2l0,0l4.5,10.7l-10.2-0.1l-2.4,3.1l2.7,4
		l6.5,1l3,5.1l-0.1,19.1L402.8,616l3.7,14l-7.1,12.3l-11.1,4.2l-7.1-1.6l-3.6,9.7l12.3,11.1l-0.1,3.8l0,0l-9.7,3.6l-1.8,4.8
		l-5.1-0.6l-1.5,3.9l-10.4-3.7l-6,6.8l-10.8,2.2l-2.4,14.3l-3.3,4.6l-5.1-3.2l-4,3.5l-4.7-7.9l-8.9,1.9l-1.4-12l-4.8,0.7l1.7,2.5
		l-3.1,3.9l-5.6-4.2l-8.9,5.5l-5.8-8.8l-4.8,1.4l-4.4-5.6l3.5-0.1l0-5.8l-14.9-7.2l-2.5,2.4l-4-2.3l2.5-7.2l-5.1-6.5l3,0.3l0.3-2.4
		l-7.1-5.6l2.1-4.1l-7.1,2.8l1.8-3.1l-3.4-0.1l-0.3-2.1l4.1,0l-4.3-2.2l0.7-4.8l-4.9,0.1l2.8-2.4l-0.4-3.1l-4.2,2.5l0.4-2.4
		l-3.9,0.8l0.7-12.4l-4.7,2.5l-1.7-2.4l-11.2,0.3l-8.8,4.1l-11.2-7.2l-0.1-3.3l-5.8-6l6.2-16.7l-2.1-7.5l1.1-16.3l2.9-1.5l3.2-9.9
		l-5.1-6.4L198.1,530.9z"/>
	<path id="BF-03" class="st0" d="M637.2,374l16.8-5.7l-5.4-20.8l11.7-2.6l3.7-11.1l5.5,7.5L667,346l1.4,4.9l8.2-4.2l5.2,5.5
		l-3.9,7.5l11.6-0.7l7.3-4.5l5.1,1.2l3.8,8.4L703,376l3.1-1.4l12.7,10.8l4.8-1.8l0.1,5.7l4.5,1.2l-0.7,4.3l0,0l-18.5,2.9l-6.7,3.3
		l-4.3-3.1l-11.1,5.1l-4.9-11.3l-6.5-0.2l-5.8,2.3l-3.4,5.8l-10.8,4l-6.5,5.6l-10.9-3.8l-6.8-7.5l0,0l9.1-10l0.2-4.9l-4.2-4.3
		l2.8-2.7L637.2,374z"/>
	<path id="BF-04" class="st0" d="M829.9,347.6l-3.8,13.1l9.7,5.5l3.2,4.8l-7.3,9.6l2.2,4l10.7,3.1l7.7,5.7l1.1,4.6l3.6-0.5l2,6.2
		l-12.9,3.8l-5.5,10.4l0.9,7.2l5.1,2.3l0.6,6.8l7.2-1.4l4,3.7l2.2,9.6l3.7,0.2l0.8-4.7l11.2,1.3l2.5,3.6l11.9-0.1l15.6,10.4
		l11.7,0.3l0.4,21.2l5.8,14.6l-6,4l3.4,14.3l-7.1,8.8l-0.4,6.7l-2,0.8l-7.1-6l-5.1,11.2l0,0l-77.8-16.9l-2.2,3.6l2.1,2.6l-7.6,2.2
		l-2.8,4.3l-1.9-5.8l-6.7,2.1l-0.6,8.3l-5.4,0.7l-4.4,4.8l-6,0.3l-4.9,9.4l-5-6.1l-2.5,0l2-3.3l-5.5-1.2l0,0l-0.3-5.6l2.3-1.8
		l-1.5-4.7l-4-0.8l-5.4-12l3.7-9l15.6-8.8l2.2-5.4l7.2,2.6l-2.1-4.4l0.8-8.1l-12.4-4.9l-4-5.6l-5.6,4.6l-10.7-6.1l-3.8,1.2
		l-8.8-12.6l3.2-9.3l4-1l5.3-9.2l0,0l12-2.1l6.2-4l8-11.9l6.9-2.6l11.6,0.5l2.4-4.5l0.8-16.7l-6.2-3.2l-5.3-14.5l2.3-9.3l-4-0.4
		l0.4-6.7l-8.5-0.1l-2-7.4l0,0l25.7,5.6L829.9,347.6z"/>
	<path id="BF-05" class="st0" d="M646,205.1l8.8-16.2l4,1.2l13.4-6.6l3,11.8l20.2,8.7l7.2-0.5l5.8-2.6l12.3-0.2l3-3.5l5.8,0.9l5-3.7
		l15.4-2.9l22.3-10.8l1.9-5l3.8-0.2l2.3,4.4l11,5.9l6.2,6.6l3,3.7l1.7,11.2l4.1,1.3l6.5,7.8l15.7,0.8l-0.7,6.8l-3.6,3.1l3.4,6.4l0,0
		l1,2l-8.6,5.1l-1.1,5.5l3.4,6.3l-5.7,12.1l2.5,7.8l-6.7,9.1l-1.9,15.1l6.7,14.5l14.7,10.4l-4.3,6.3l4.2,12.3l-1.8,7.5l0,0
		l-22.8,12.3l-25.7-5.6l0,0l0.3-8.2l-4.5-12.1l-8.6-1.1l-3.5,1.9l1.3,8.4l-2.7,2.6l-9.4,6.3l-7.1-1.6l-12.5-15.5l-12.2,0.7l-4.6,6.4
		l1.9-7.9l-2.4-2l0.2-4.6l-10.9-8.3l-12-2.9l-3-4.8l-12.7-0.4l-9.7-5.2l0,0l2.3-1.7l0.5-7.7l-25.5-17.3l3.1-4.2l-0.1-7.4l-4-7.5
		l-5,0.8l-1.6-4.4l-4.4-2.6l0.9-14.9l-5.4-16.3l2.8-4.8l9.7-5.2l4.8,0.4l1-4.2L646,205.1z"/>
	<path id="BF-06" class="st0" d="M539.7,326.2l11.4-8.8l4.6-0.5l2.7,3.2l-3.6,5.6l1,5.3l11.2,0.7l-6,5l0,3.7l3.2,0.6l28.7-10.1
		l23.4-1.6l3.5,6.1l2.9-2l0,0l2.2,2.5l-0.9,3.6l14.2,6l3.1,13.7l-9.6,4.1l-7.8-3.9l-8.9,0.3l-8.6,20.5l7.7,2.6l9.4-7l13.6-1.7l0,0
		l2,2.2l-2.8,2.7l4.2,4.3l-0.2,4.9l-9.1,10l0,0l-5.7,0.5l-0.9,3.5l-5.2,2l1.3,4.7l-9.9,9.1l5.5,3.8l2.4,5.5l5.7-2.4l5.7,3.1l3.2-3.4
		l6.2-1.3l18.9,19.9l18,9.3l10.3,10.9l6.1,1.7l5,7.3l-7.6,8.8l-12.7,7.3l-1.9,3.9l-6.8,1L657.3,519l14.9,7.9l8.2,0.8l0.7,3.7
		l4.7-0.9l0.1,5.9l0,0l-20.7-1.9l-0.7,3.7l-8-1l-9.8,2.5l-117.9-2.5l0,0l2.3-6.5l7.2-1.2l1.4-7.6l-10.4-8.4l-2.9,5l-5.3,2.5
		l-2.8-10.5l0,0l10.4-14.8l14.9,1.8l0.9-4.1l6.2-1l3.3-3.7l-17.5-13.8l-1.8-11.9l-13.8-17.4l-13.1-1.2l-1.8-2.5l1.2-2.7l7.6-2.6
		l1.2-6.5l-3.4-7l0.6-5.7l-7.7-7.6l1.3-2.6l10.2,0.6l3.9-3.7l-8.7-22.7l5.7-6.4l-1.7-4.3l14-16l-4.3-13.2L539.7,326.2z"/>
	<path id="BF-07" class="st0" d="M631.3,398l6.8,7.5l10.9,3.8l6.5-5.6l10.8-4l3.4-5.8l5.8-2.3l6.5,0.2l4.9,11.3l11.1-5.1l4.3,3.1
		l6.7-3.3l18.5-2.9l0,0l9.5,16l9.7,9.4l1.7,10.7l7.5,2.9l0.8,3.3l0,0l-5.3,9.2l-4,1l-3.2,9.3l8.8,12.6l3.8-1.2l10.7,6.1l5.6-4.6
		l4,5.6l12.4,4.9l-0.8,8.1l2.1,4.4l-7.2-2.6l-2.2,5.4l-15.6,8.8l-3.7,9l5.4,12l4,0.8l1.5,4.7l-2.3,1.8l0.3,5.6l0,0l-15.6-1.4
		l-5.5,5.3l-6.5-4.2l-22.3-0.8l-0.3,2.2l-34.8-2.5l0,0l-0.1-5.9l-4.7,0.9l-0.7-3.7l-8.2-0.8l-14.9-7.9l11.4-25.9l6.8-1l1.9-3.9
		l12.7-7.3l7.6-8.8l-5-7.3l-6.1-1.7l-10.3-10.9l-18-9.3L639.4,423l-6.2,1.3l-3.2,3.4l-5.7-3.1l-5.7,2.4l-2.4-5.5l-5.5-3.8l9.9-9.1
		l-1.3-4.7l5.2-2l0.9-3.5L631.3,398z"/>
	<path id="BF-08" class="st0" d="M827.7,233.5l4-3.8l0.9-5l8.2,0.3l8.6,3.8l12.6-5.3l1,11.1l4.4,0.2l6.9,15.3l10.7,10.6l0.9,6.3
		l22.5,7.5l1.2,4.6l6,1.7l0.4,5.2l7.9,5.7l2.8,7.2l-3.3,0.6l3.7,1l5.7-3.6l2.9,2.7l1-3.8l10.2,2.8l1.5-4.9l6.3,0.3l1.3-3.5l17.2-8.1
		l0,0l0.1,4.2l8.7,1.4l61,50.5l35.6,1.8l6.1-10.5l2.9,0.9l4.1-4.6l14.4,0.6l0.8,2.9l6,2.3l-1.1,4.7l8.9,8l0.3,7.4l4.7,5.7l0.8,5.7
		l-14.2,1l-5.7,5l-3-1.8l-2.1,4.5l40.7,55.2l-0.3,3.8l-2.8,2l-0.8,7.4l-3.8,0.9l-4.4,6.1l0.2,7.4l-14.4,9.4l-20.9,21.1l-20.2-2.5
		l-10.7,3.3l-4.6-1.5l-1.7,2.6l-9.5,2.1l-3.3-0.9l-4.6-8.9l-2.7,2.9l-11-3.2l-6.6,3.8l0.5,5.2l-8.4,4.9l2.7,5.8l-1.7,2.5l-8.1-3.6
		l2,6.9l-2.9,2.3l-12.5-3.1l-2.2,1.7l3.2,3.9l0.4,7.2l-5-0.9l-8.1,5.3l4.3,1.7l2.8,10l-4.8-3.5l-4.1,1.2l-2.6-4.1l-4.1-0.8
		l-7.9,11.4l-30.6-0.1l-19.3,8l1-9.4l-15-3l0,0l5.1-11.2l7.1,6l2-0.8l0.4-6.7l7.1-8.8l-3.4-14.3l6-4l-5.8-14.6l-0.4-21.2l-11.7-0.3
		l-15.6-10.4l-11.9,0.1l-2.5-3.6l-11.2-1.3l-0.8,4.7l-3.7-0.2l-2.2-9.6l-4-3.7l-7.2,1.4l-0.6-6.8l-5.1-2.3l-0.9-7.2l5.5-10.4
		l12.9-3.8l-2-6.2l-3.6,0.5l-1.1-4.6l-7.7-5.7l-10.7-3.1l-2.2-4l7.3-9.6l-3.2-4.8l-9.7-5.5l3.8-13.1l0,0l1.8-7.5l-4.2-12.3l4.3-6.3
		L817.2,311l-6.7-14.5l1.9-15.1l6.7-9.1l-2.5-7.8l5.7-12.1l-3.4-6.3l1.1-5.5l8.6-5.1L827.7,233.5z"/>
	<path id="BF-09" class="st0" d="M299.8,407.5l4.3,2.2l8-0.9l5.6-3.3l3.4,1.7l-0.1,9l4.6,0.3l-7.7,29.4l1.6,3.5l12.8-2.7l1.8,2.4
		l4.8-0.6l9-20.1l4.5-4.2l9.4,0.5l5.6-2.8l9,3.5l2-1.4l3.6,2.5l-0.3,7.6l5.4,0.7l4.9,4.8l-0.7,3.3l11.7,6.2l6.3,0.9l4.5-3.1
		l12.3-1.5l23.5,9.9l-3.7,10l14,5.9l0,6.5l4.9,4.9l2.9-4.6l3.8,1.9l4.8-5.1l15-7.7l8.2,5.2l5.7-1.3l4,2.7l2.4-2.9l3.3,1.9l3.8,2.8
		l-1.8,5.1l1.8,10.1l-4.8,11.6l0,0l-20.3-8l-9.7,3.1h-3l-0.7-3.4l-9.8,2.8l-8.5,11.1l-1.8,8.2l-6.1,0.2l-5.4,3.5l-4.5-0.5l-0.9-3.2
		l-2.2,4.6l-4.3,0.5l-7.2,6.9l-4.6,4.7l1.3,7.5l-6.5,4.5l-1.2,7.7l-8.4,2.1l-0.7,3.3l0,0l-6.3,0.2l-8.5,9.7l0.8,2.7l-9.2,4.7
		l-14.1-5.4l-6.7-6.2l-21.1,10.1l-3-3.6l-11.8-2.4l-6.1-12.5l-3.3-2.2l-8.3,0l-15.3,11.6l-8.9-3.3l-7.5-10.4l-17.4-0.9l-9,6.1
		l-17.4,4.6l-26.1-28.5l-12.2-1l0,0l0.6-2.8l11.5-3.1l6.3-4.7l1.6-7.4l6.7-4.5l0.8-15.1l7.9-8.9l-2.8-18.5l-9.1-4.1l4.2-17.5
		l-15.8-6.2l-1.2-2.5l6.2,1.3l8.1-3.6l2.2,2.2l13.5-13.8l9.1-3.9l28.4-4.4l12.7,2.5l3.2-6.5L299.8,407.5z"/>
	<path id="BF-10" class="st0" d="M597.5,141.9l11.6,16.4l23.7,14.6l-0.9,13.4l14.2,18.8l0,0l2.4,3.7l-1,4.2l-4.8-0.4l-9.7,5.2
		l-2.8,4.8l5.4,16.3l-0.9,14.9l4.4,2.6l1.6,4.4l5-0.8l4,7.5l0.1,7.4l-3.1,4.2l25.5,17.3l-0.5,7.7l-2.3,1.7l0,0l-11.3-3.8l-26.1,8.1
		l-7.4,6.6l-4.9,8.8l3.3,7.9l0,0l-2.9,2l-3.5-6.1l-23.4,1.6L564.3,341l-3.2-0.6l0-3.7l6-5l-11.2-0.7l-1-5.3l3.6-5.6l-2.7-3.2
		l-4.6,0.5l-11.4,8.8l0,0l-9-10.1l3.3-15l-0.7-16.8L549,284l14.8-19.9l-4.6-2.9l-5.8,1.3l-8.2-4.3l-6.6-20.8l-5.2-1.1l-2.4-5.2
		l-16.9-4.1l-9.3-10.6l0,0l2.4-2.4l-2.3-20.8l10.1-21.8l40.2-16.4L597.5,141.9z"/>
	<path id="BF-11" class="st0" d="M622.8,333.3l-3.3-7.9l4.9-8.8l7.4-6.6l26.1-8.1l11.3,3.8l0,0l9.7,5.2l12.7,0.4l3,4.8l12,2.9
		l10.9,8.3l-0.2,4.6l2.4,2l-1.9,7.9l4.6-6.4l12.2-0.7l12.5,15.5l7.1,1.6l9.4-6.3l2.7-2.6l-1.3-8.4l3.5-1.9l8.6,1.1l4.5,12.1
		l-0.3,8.2l0,0l2,7.4l8.5,0.1l-0.4,6.7l4,0.4l-2.3,9.3l5.3,14.5l6.2,3.2l-0.8,16.7l-2.4,4.5l-11.6-0.5l-6.9,2.6l-8,11.9l-6.2,4
		l-12,2.1l0,0l-0.8-3.3l-7.5-2.9l-1.7-10.7l-9.7-9.4l-9.5-16l0,0l0.7-4.3l-4.5-1.2l-0.1-5.7l-4.8,1.8l-12.7-10.8L703,376l2.8-11.9
		l-3.8-8.4l-5.1-1.2l-7.3,4.5l-11.6,0.7l3.9-7.5l-5.2-5.5l-8.2,4.2L667,346l2.5-4.6l-5.5-7.5l-3.7,11.1l-11.7,2.6l5.4,20.8
		l-16.8,5.7l0,0l-13.6,1.7l-9.4,7l-7.7-2.6l8.6-20.5l8.9-0.3l7.8,3.9l9.6-4.1l-3.1-13.7l-14.2-6l0.9-3.6L622.8,333.3z"/>
	<path id="BF-12" class="st0" d="M800.3,39.4l8,9l16.1-8.5l29.2,11.3l28.5-0.6l0.8,12.7l-4,5.7l4.1,11l-8.1,27.7l2.9,7.7l10,10.1
		l5.7,2l8.2,11.8l-4.1,14.4l4.5,7.6l0.4,7.2l6.7,9.5l3-1.9l-0.9,5.9l6.8,9.4l7,6.5l3.7,0.1l-2.5,6.9l2.3,3.8l18.4,0.7l2.9,1.9
		l-1.8,4.2l5.4,2.9h9.5l9.9,5.2l2.9,10.9l31.9,15.7l-5.9,3l-3.5-4.9l-2.4,7l-15.5-6.3l-7.3-0.3l0,33.8l0,0l-17.2,8.1l-1.3,3.5
		l-6.3-0.3l-1.5,4.9l-10.2-2.8l-1,3.8l-2.9-2.7l-5.7,3.6l-3.7-1l3.3-0.6l-2.8-7.2l-7.9-5.7l-0.4-5.2l-6-1.7l-1.2-4.6l-22.5-7.5
		l-0.9-6.3l-10.7-10.6l-6.9-15.3l-4.4-0.2l-1-11.1l-12.6,5.3l-8.6-3.8l-8.2-0.3l-0.9,5l-4,3.8l0,0l-3.4-6.4l3.6-3.1l0.7-6.8
		l-15.7-0.8l-6.5-7.8l-4.1-1.3l-1.7-11.2l-3-3.7l-6.2-6.6l-11-5.9l-2.3-4.4l-3.8,0.2l-1.9,5L750,191.5l-15.4,2.9l-5,3.7l-5.8-0.9
		l-3,3.5l-12.3,0.2l-5.8,2.6l-7.2,0.5l-20.2-8.7l-3-11.8l-13.4,6.6l-4-1.2l-8.8,16.2l0,0l-14.2-18.8l0.9-13.4L609,158.3l-11.6-16.4
		l0,0l19.2-41.9l69-23.2l45.7-7.1l37.3-30.3L800.3,39.4z"/>
	<path id="BF-13" class="st0" d="M409.6,557.7l0.7-3.3l8.4-2.1l1.2-7.7l6.5-4.5l-1.3-7.5l4.6-4.7l7.2-6.9l4.3-0.5l2.2-4.6l0.9,3.2
		l4.5,0.5l5.4-3.5l6.1-0.2l1.8-8.2l8.5-11.1l9.8-2.8l0.7,3.4h3l9.7-3.1l20.3,8l0,0l-2.7,4.8l6.9,3.5l0,0l2.8,10.5l5.3-2.5l2.9-5
		l10.4,8.4l-1.4,7.6l-7.2,1.2l-2.3,6.5l0,0l-12.7-0.9l-1.2,5.4l2.4,5.6l-5.3,4.2l-2.9,12.6l-5.7,7.1l3.6,3.6l-4.1,6.8l9,21.4
		l11.2,4.1l-7,3.9l-2.3,8.1l10.9,9.6l-4.4,7l0.4,9l5.2,18l-2.2,7.7l4.2,7.7l-7.1,9.7l0,5.1l4.9,7.6l-2,9.4l9.7,9.1l-7.6,9.5
		l-5.4-1.2L508.1,714l-12.6-24.8l-6.4,2.2l-7.8-15.1l-7.3,0l-1-9.9l-10.2,9.1l-4.5-0.9l0.4-5.1l-4.1,1.3l-14.4-4.1l-15.5,0.7
		l-5.1-4.5l-13.2,3.1l-6.8,5.2l-9.8-1.4l0,0l0.1-3.8l-12.3-11.1l3.6-9.7l7.1,1.6l11.1-4.2l7.1-12.3l-3.7-14l10.6-15.4l0.1-19.1
		l-3-5.1l-6.5-1l-2.7-4l2.4-3.1l10.2,0.1L409.6,557.7z"/>
</g>
</svg>
